<svg width="36" height="32" viewBox="0 0 36 32" fill="none" xmlns="http://www.w3.org/2000/svg">
<path opacity="0.7" d="M18.0556 7.79042C13.0917 7.79042 9.08782 11.451 9.08782 15.9894C9.08782 20.5277 13.0917 24.1883 18.0556 24.1883C23.0194 24.1883 27.0233 20.5277 27.0233 15.9894C27.0233 11.451 23.0194 7.79042 18.0556 7.79042ZM18.0556 21.3197C14.8478 21.3197 12.2254 18.9293 12.2254 15.9894C12.2254 13.0494 14.84 10.659 18.0556 10.659C21.2712 10.659 23.8858 13.0494 23.8858 15.9894C23.8858 18.9293 21.2634 21.3197 18.0556 21.3197ZM29.4818 7.45504C29.4818 8.51826 28.5453 9.36741 27.3902 9.36741C26.2272 9.36741 25.2985 8.51112 25.2985 7.45504C25.2985 6.39895 26.235 5.54267 27.3902 5.54267C28.5453 5.54267 29.4818 6.39895 29.4818 7.45504ZM35.4213 9.39595C35.2886 6.83423 34.6487 4.56507 32.596 2.69552C30.5511 0.825959 28.0692 0.24083 25.2672 0.112387C22.3794 -0.0374625 13.7239 -0.0374625 10.8361 0.112387C8.04197 0.233695 5.56003 0.818823 3.50736 2.68838C1.45469 4.55794 0.822495 6.82709 0.682008 9.38881C0.518107 12.029 0.518107 19.9425 0.682008 22.5827C0.81469 25.1445 1.45469 27.4136 3.50736 29.2832C5.56003 31.1527 8.03416 31.7379 10.8361 31.8663C13.7239 32.0162 22.3794 32.0162 25.2672 31.8663C28.0692 31.745 30.5511 31.1599 32.596 29.2832C34.6408 27.4136 35.2808 25.1445 35.4213 22.5827C35.5852 19.9425 35.5852 12.0362 35.4213 9.39595ZM31.6906 25.4156C31.0818 26.8142 29.9033 27.8917 28.3658 28.4554C26.0633 29.2903 20.5999 29.0977 18.0556 29.0977C15.5112 29.0977 10.04 29.2832 7.74538 28.4554C6.21564 27.8989 5.03711 26.8214 4.42052 25.4156C3.50736 23.3106 3.71809 18.3156 3.71809 15.9894C3.71809 13.6631 3.51516 8.66097 4.42052 6.56307C5.0293 5.16447 6.20783 4.08698 7.74538 3.52326C10.0478 2.68838 15.5112 2.88104 18.0556 2.88104C20.5999 2.88104 26.0711 2.69552 28.3658 3.52326C29.8955 4.07984 31.074 5.15734 31.6906 6.56307C32.6038 8.66811 32.3931 13.6631 32.3931 15.9894C32.3931 18.3156 32.6038 23.3177 31.6906 25.4156Z" fill="white"/>
</svg>
