<svg width="30" height="29" viewBox="0 0 30 29" fill="none" xmlns="http://www.w3.org/2000/svg">
<path d="M6.68832 28.87H0.493554V9.59498H6.68832V28.87ZM3.5876 6.96569C1.60672 6.96569 0 5.38038 0 3.46641C1.41783e-08 2.54706 0.377978 1.66537 1.05078 1.01529C1.72359 0.36521 2.63611 0 3.5876 0C4.53909 0 5.45161 0.36521 6.12442 1.01529C6.79722 1.66537 7.1752 2.54706 7.1752 3.46641C7.1752 5.38038 5.56782 6.96569 3.5876 6.96569ZM29.8733 28.87H23.6919V19.487C23.6919 17.2509 23.6452 14.3831 20.4711 14.3831C17.2504 14.3831 16.7568 16.8126 16.7568 19.3259V28.87H10.5687V9.59498H16.51V12.2243H16.5967C17.4238 10.7099 19.444 9.11165 22.458 9.11165C28.7275 9.11165 29.88 13.1007 29.88 18.282V28.87H29.8733Z" fill="white"/>
</svg>
