<svg width="33" height="26" viewBox="0 0 33 26" fill="none" xmlns="http://www.w3.org/2000/svg">
<path d="M29.6079 6.30521C29.6289 6.58192 29.6289 6.85868 29.6289 7.13539C29.6289 15.5753 22.8237 25.3 10.3858 25.3C6.55394 25.3 2.99431 24.2524 0 22.434C0.544438 22.4933 1.06786 22.513 1.63325 22.513C4.79501 22.513 7.70559 21.505 10.0298 19.7854C7.05648 19.7261 4.56472 17.8879 3.7062 15.3579C4.12502 15.4171 4.54377 15.4567 4.98354 15.4567C5.59075 15.4567 6.19803 15.3776 6.76335 15.2393C3.66437 14.6463 1.34005 12.0768 1.34005 8.97358V8.89455C2.2404 9.36893 3.28744 9.66541 4.39714 9.70489C2.57543 8.55846 1.38194 6.60169 1.38194 4.38792C1.38194 3.20201 1.71691 2.1149 2.30324 1.16614C5.63258 5.0402 10.6371 7.57016 16.2487 7.84693C16.144 7.37255 16.0812 6.87846 16.0812 6.38431C16.0812 2.86598 19.0964 0 22.8445 0C24.7919 0 26.5507 0.770857 27.7862 2.01609C29.3147 1.73939 30.7804 1.20569 32.0787 0.474378C31.5761 1.95683 30.5082 3.20207 29.1053 3.99264C30.4664 3.85435 31.7856 3.49849 33 3.0044C32.0788 4.26934 30.9271 5.39594 29.6079 6.30521Z" fill="white"/>
</svg>
