<svg width="27" height="27" viewBox="0 0 27 27" fill="none" xmlns="http://www.w3.org/2000/svg">
<path d="M26.23 19.0788L20.3237 16.5476C20.0713 16.44 19.7909 16.4174 19.5246 16.483C19.2583 16.5486 19.0205 16.699 18.8471 16.9114L16.2314 20.1071C12.1263 18.1717 8.82272 14.8681 6.88723 10.7631L10.083 8.14751C10.2959 7.97437 10.4465 7.73659 10.5122 7.47016C10.5779 7.20374 10.5549 6.92317 10.4469 6.67095L7.91557 0.764698C7.79697 0.492804 7.58722 0.270811 7.32248 0.137C7.05774 0.00318787 6.75461 -0.0340561 6.46535 0.0316898L0.980876 1.29731C0.701996 1.36171 0.453178 1.51874 0.275033 1.74275C0.096888 1.96677 -6.42427e-05 2.24456 3.19376e-08 2.53077C3.19376e-08 16.0571 10.9637 26.9995 24.4692 26.9995C24.7555 26.9997 25.0334 26.9028 25.2575 26.7247C25.4817 26.5465 25.6388 26.2976 25.7032 26.0187L26.9688 20.5343C27.0342 20.2436 26.9961 19.9393 26.8613 19.6736C26.7264 19.408 26.5032 19.1977 26.23 19.0788Z" fill="white"/>
</svg>
